<mxfile host="app.diagrams.net" agent="Mozilla/5.0 (Windows NT 10.0; Win64; x64) AppleWebKit/537.36 (KHTML, like Gecko) Chrome/128.0.0.0 Safari/537.36" version="24.7.14">
  <diagram name="Страница — 1" id="1wOapaZ62PoJuDXf-gLB">
    <mxGraphModel dx="2474" dy="1152" grid="0" gridSize="10" guides="1" tooltips="1" connect="1" arrows="1" fold="1" page="0" pageScale="1" pageWidth="827" pageHeight="1169" math="0" shadow="0">
      <root>
        <mxCell id="0" />
        <mxCell id="1" parent="0" />
        <mxCell id="KuXuB0iPRyk_4KeLz07_-43" style="edgeStyle=orthogonalEdgeStyle;rounded=0;orthogonalLoop=1;jettySize=auto;html=1;exitX=0.5;exitY=1;exitDx=0;exitDy=0;entryX=0.5;entryY=0;entryDx=0;entryDy=0;" edge="1" parent="1" source="7cYiF0w9IGWrzAaVDBA9-1" target="7cYiF0w9IGWrzAaVDBA9-2">
          <mxGeometry relative="1" as="geometry">
            <Array as="points">
              <mxPoint x="228" y="43" />
              <mxPoint x="148" y="43" />
            </Array>
          </mxGeometry>
        </mxCell>
        <mxCell id="KuXuB0iPRyk_4KeLz07_-44" style="edgeStyle=orthogonalEdgeStyle;rounded=0;orthogonalLoop=1;jettySize=auto;html=1;exitX=0.5;exitY=1;exitDx=0;exitDy=0;entryX=0.5;entryY=0;entryDx=0;entryDy=0;" edge="1" parent="1" source="7cYiF0w9IGWrzAaVDBA9-1" target="7cYiF0w9IGWrzAaVDBA9-3">
          <mxGeometry relative="1" as="geometry">
            <Array as="points">
              <mxPoint x="228" y="43" />
              <mxPoint x="307" y="43" />
            </Array>
          </mxGeometry>
        </mxCell>
        <mxCell id="KuXuB0iPRyk_4KeLz07_-46" style="edgeStyle=orthogonalEdgeStyle;rounded=0;orthogonalLoop=1;jettySize=auto;html=1;exitX=0.5;exitY=1;exitDx=0;exitDy=0;entryX=0.5;entryY=0;entryDx=0;entryDy=0;" edge="1" parent="1" source="7cYiF0w9IGWrzAaVDBA9-1" target="KuXuB0iPRyk_4KeLz07_-5">
          <mxGeometry relative="1" as="geometry">
            <Array as="points">
              <mxPoint x="228" y="43" />
              <mxPoint x="-162" y="43" />
            </Array>
          </mxGeometry>
        </mxCell>
        <mxCell id="KuXuB0iPRyk_4KeLz07_-52" style="edgeStyle=orthogonalEdgeStyle;rounded=0;orthogonalLoop=1;jettySize=auto;html=1;exitX=0.5;exitY=1;exitDx=0;exitDy=0;" edge="1" parent="1" source="7cYiF0w9IGWrzAaVDBA9-1" target="KuXuB0iPRyk_4KeLz07_-25">
          <mxGeometry relative="1" as="geometry">
            <Array as="points">
              <mxPoint x="228" y="43" />
              <mxPoint x="629" y="43" />
            </Array>
          </mxGeometry>
        </mxCell>
        <mxCell id="7cYiF0w9IGWrzAaVDBA9-1" value="Директор компании&lt;div&gt;TechForge&lt;/div&gt;" style="rounded=1;whiteSpace=wrap;html=1;" parent="1" vertex="1">
          <mxGeometry x="168" y="-29" width="120" height="60" as="geometry" />
        </mxCell>
        <mxCell id="vKuomEE9mSbw3DmOQPJa-15" style="edgeStyle=orthogonalEdgeStyle;rounded=0;orthogonalLoop=1;jettySize=auto;html=1;exitX=0.5;exitY=1;exitDx=0;exitDy=0;entryX=0.5;entryY=0;entryDx=0;entryDy=0;" parent="1" source="7cYiF0w9IGWrzAaVDBA9-2" target="7cYiF0w9IGWrzAaVDBA9-4" edge="1">
          <mxGeometry relative="1" as="geometry">
            <Array as="points">
              <mxPoint x="147.94" y="137" />
              <mxPoint x="-3.0600000000000014" y="137" />
            </Array>
          </mxGeometry>
        </mxCell>
        <mxCell id="vKuomEE9mSbw3DmOQPJa-16" style="edgeStyle=orthogonalEdgeStyle;rounded=0;orthogonalLoop=1;jettySize=auto;html=1;exitX=0.5;exitY=1;exitDx=0;exitDy=0;" parent="1" source="7cYiF0w9IGWrzAaVDBA9-2" target="7cYiF0w9IGWrzAaVDBA9-5" edge="1">
          <mxGeometry relative="1" as="geometry" />
        </mxCell>
        <mxCell id="7cYiF0w9IGWrzAaVDBA9-2" value="&lt;div&gt;Начальник департамента кастодиальных услуг&lt;/div&gt;" style="rounded=1;whiteSpace=wrap;html=1;" parent="1" vertex="1">
          <mxGeometry x="87.94" y="64" width="120" height="60" as="geometry" />
        </mxCell>
        <mxCell id="vKuomEE9mSbw3DmOQPJa-17" style="edgeStyle=orthogonalEdgeStyle;rounded=0;orthogonalLoop=1;jettySize=auto;html=1;exitX=0.5;exitY=1;exitDx=0;exitDy=0;" parent="1" source="7cYiF0w9IGWrzAaVDBA9-3" target="7cYiF0w9IGWrzAaVDBA9-6" edge="1">
          <mxGeometry relative="1" as="geometry" />
        </mxCell>
        <mxCell id="vKuomEE9mSbw3DmOQPJa-18" style="edgeStyle=orthogonalEdgeStyle;rounded=0;orthogonalLoop=1;jettySize=auto;html=1;exitX=0.5;exitY=1;exitDx=0;exitDy=0;entryX=0.5;entryY=0;entryDx=0;entryDy=0;" parent="1" source="7cYiF0w9IGWrzAaVDBA9-3" target="7cYiF0w9IGWrzAaVDBA9-7" edge="1">
          <mxGeometry relative="1" as="geometry">
            <Array as="points">
              <mxPoint x="307" y="137" />
              <mxPoint x="453" y="137" />
            </Array>
          </mxGeometry>
        </mxCell>
        <mxCell id="7cYiF0w9IGWrzAaVDBA9-3" value="Начальник департамента эксплуатации" style="rounded=1;whiteSpace=wrap;html=1;" parent="1" vertex="1">
          <mxGeometry x="247" y="64" width="120" height="60" as="geometry" />
        </mxCell>
        <mxCell id="vKuomEE9mSbw3DmOQPJa-20" style="edgeStyle=orthogonalEdgeStyle;rounded=0;orthogonalLoop=1;jettySize=auto;html=1;exitX=0;exitY=0.5;exitDx=0;exitDy=0;entryX=0;entryY=0.5;entryDx=0;entryDy=0;" parent="1" source="7cYiF0w9IGWrzAaVDBA9-4" target="vKuomEE9mSbw3DmOQPJa-2" edge="1">
          <mxGeometry relative="1" as="geometry" />
        </mxCell>
        <mxCell id="vKuomEE9mSbw3DmOQPJa-21" style="edgeStyle=orthogonalEdgeStyle;rounded=0;orthogonalLoop=1;jettySize=auto;html=1;exitX=0;exitY=0.5;exitDx=0;exitDy=0;entryX=0;entryY=0.5;entryDx=0;entryDy=0;" parent="1" source="7cYiF0w9IGWrzAaVDBA9-4" target="vKuomEE9mSbw3DmOQPJa-1" edge="1">
          <mxGeometry relative="1" as="geometry" />
        </mxCell>
        <mxCell id="vKuomEE9mSbw3DmOQPJa-22" style="edgeStyle=orthogonalEdgeStyle;rounded=0;orthogonalLoop=1;jettySize=auto;html=1;exitX=0;exitY=0.5;exitDx=0;exitDy=0;entryX=0;entryY=0.5;entryDx=0;entryDy=0;" parent="1" source="7cYiF0w9IGWrzAaVDBA9-4" target="vKuomEE9mSbw3DmOQPJa-3" edge="1">
          <mxGeometry relative="1" as="geometry" />
        </mxCell>
        <mxCell id="7cYiF0w9IGWrzAaVDBA9-4" value="&lt;div&gt;Начальник отдела защиты информационных систем&lt;/div&gt;" style="rounded=1;whiteSpace=wrap;html=1;" parent="1" vertex="1">
          <mxGeometry x="-63.06" y="157" width="120" height="60" as="geometry" />
        </mxCell>
        <mxCell id="vKuomEE9mSbw3DmOQPJa-23" style="edgeStyle=orthogonalEdgeStyle;rounded=0;orthogonalLoop=1;jettySize=auto;html=1;exitX=0;exitY=0.5;exitDx=0;exitDy=0;entryX=0;entryY=0.5;entryDx=0;entryDy=0;" parent="1" source="7cYiF0w9IGWrzAaVDBA9-5" target="vKuomEE9mSbw3DmOQPJa-4" edge="1">
          <mxGeometry relative="1" as="geometry" />
        </mxCell>
        <mxCell id="vKuomEE9mSbw3DmOQPJa-24" style="edgeStyle=orthogonalEdgeStyle;rounded=0;orthogonalLoop=1;jettySize=auto;html=1;exitX=0;exitY=0.5;exitDx=0;exitDy=0;entryX=0;entryY=0.5;entryDx=0;entryDy=0;" parent="1" source="7cYiF0w9IGWrzAaVDBA9-5" target="vKuomEE9mSbw3DmOQPJa-5" edge="1">
          <mxGeometry relative="1" as="geometry" />
        </mxCell>
        <mxCell id="vKuomEE9mSbw3DmOQPJa-25" style="edgeStyle=orthogonalEdgeStyle;rounded=0;orthogonalLoop=1;jettySize=auto;html=1;exitX=0;exitY=0.5;exitDx=0;exitDy=0;entryX=0;entryY=0.5;entryDx=0;entryDy=0;" parent="1" source="7cYiF0w9IGWrzAaVDBA9-5" target="vKuomEE9mSbw3DmOQPJa-6" edge="1">
          <mxGeometry relative="1" as="geometry" />
        </mxCell>
        <mxCell id="7cYiF0w9IGWrzAaVDBA9-5" value="Начальник отдела хранения данных" style="rounded=1;whiteSpace=wrap;html=1;" parent="1" vertex="1">
          <mxGeometry x="87.94" y="157" width="120" height="60" as="geometry" />
        </mxCell>
        <mxCell id="vKuomEE9mSbw3DmOQPJa-28" style="edgeStyle=orthogonalEdgeStyle;rounded=0;orthogonalLoop=1;jettySize=auto;html=1;exitX=1;exitY=0.5;exitDx=0;exitDy=0;entryX=1;entryY=0.5;entryDx=0;entryDy=0;" parent="1" source="7cYiF0w9IGWrzAaVDBA9-6" target="vKuomEE9mSbw3DmOQPJa-8" edge="1">
          <mxGeometry relative="1" as="geometry">
            <Array as="points">
              <mxPoint x="380" y="187" />
              <mxPoint x="380" y="369" />
            </Array>
          </mxGeometry>
        </mxCell>
        <mxCell id="7cYiF0w9IGWrzAaVDBA9-6" value="&lt;div&gt;Начальник отдела анализа данных и ИТ консалтинга&lt;/div&gt;" style="rounded=1;whiteSpace=wrap;html=1;" parent="1" vertex="1">
          <mxGeometry x="247" y="157" width="120" height="60" as="geometry" />
        </mxCell>
        <mxCell id="vKuomEE9mSbw3DmOQPJa-32" style="edgeStyle=orthogonalEdgeStyle;rounded=0;orthogonalLoop=1;jettySize=auto;html=1;exitX=1;exitY=0.5;exitDx=0;exitDy=0;entryX=1;entryY=0.5;entryDx=0;entryDy=0;" parent="1" source="7cYiF0w9IGWrzAaVDBA9-7" target="vKuomEE9mSbw3DmOQPJa-10" edge="1">
          <mxGeometry relative="1" as="geometry" />
        </mxCell>
        <mxCell id="7cYiF0w9IGWrzAaVDBA9-7" value="Начальник отдела оценки ИТ-проектов" style="rounded=1;whiteSpace=wrap;html=1;" parent="1" vertex="1">
          <mxGeometry x="393" y="157" width="120" height="60" as="geometry" />
        </mxCell>
        <mxCell id="vKuomEE9mSbw3DmOQPJa-1" value="Специалист по безопасности данных" style="rounded=1;whiteSpace=wrap;html=1;" parent="1" vertex="1">
          <mxGeometry x="-63.06" y="246" width="120" height="60" as="geometry" />
        </mxCell>
        <mxCell id="vKuomEE9mSbw3DmOQPJa-2" value="Разработчик ПО для отслеживания и защиты от кибератак" style="rounded=1;whiteSpace=wrap;html=1;" parent="1" vertex="1">
          <mxGeometry x="-63.06" y="339" width="120" height="60" as="geometry" />
        </mxCell>
        <mxCell id="vKuomEE9mSbw3DmOQPJa-3" value="Специалист по тестированию" style="rounded=1;whiteSpace=wrap;html=1;" parent="1" vertex="1">
          <mxGeometry x="-63.06" y="432" width="120" height="60" as="geometry" />
        </mxCell>
        <mxCell id="vKuomEE9mSbw3DmOQPJa-4" value="Архитектор хранилищ данных" style="rounded=1;whiteSpace=wrap;html=1;" parent="1" vertex="1">
          <mxGeometry x="89.94" y="246" width="120" height="60" as="geometry" />
        </mxCell>
        <mxCell id="vKuomEE9mSbw3DmOQPJa-5" value="Специалист по архивированию данных" style="rounded=1;whiteSpace=wrap;html=1;" parent="1" vertex="1">
          <mxGeometry x="89.94" y="339" width="120" height="60" as="geometry" />
        </mxCell>
        <mxCell id="vKuomEE9mSbw3DmOQPJa-6" value="Инженер по масштабированию хранилища данных" style="rounded=1;whiteSpace=wrap;html=1;" parent="1" vertex="1">
          <mxGeometry x="89.94" y="432" width="120" height="60" as="geometry" />
        </mxCell>
        <mxCell id="vKuomEE9mSbw3DmOQPJa-7" value="&lt;div&gt;IT - консультант&lt;/div&gt;" style="rounded=1;whiteSpace=wrap;html=1;" parent="1" vertex="1">
          <mxGeometry x="247" y="246" width="120" height="60" as="geometry" />
        </mxCell>
        <mxCell id="vKuomEE9mSbw3DmOQPJa-8" value="&lt;div&gt;Системный аналитик&lt;/div&gt;" style="rounded=1;whiteSpace=wrap;html=1;" parent="1" vertex="1">
          <mxGeometry x="249" y="339" width="120" height="60" as="geometry" />
        </mxCell>
        <mxCell id="vKuomEE9mSbw3DmOQPJa-9" value="&lt;div&gt;Младший системный аналитик&lt;/div&gt;" style="rounded=1;whiteSpace=wrap;html=1;" parent="1" vertex="1">
          <mxGeometry x="249" y="432" width="120" height="60" as="geometry" />
        </mxCell>
        <mxCell id="vKuomEE9mSbw3DmOQPJa-10" value="Менеджер проектов" style="rounded=1;whiteSpace=wrap;html=1;" parent="1" vertex="1">
          <mxGeometry x="393" y="244" width="120" height="60" as="geometry" />
        </mxCell>
        <mxCell id="vKuomEE9mSbw3DmOQPJa-11" value="Специалист по оценке IT-проектов" style="rounded=1;whiteSpace=wrap;html=1;" parent="1" vertex="1">
          <mxGeometry x="391" y="339" width="120" height="60" as="geometry" />
        </mxCell>
        <mxCell id="vKuomEE9mSbw3DmOQPJa-12" value="Специалист по оценке IT - проектов" style="rounded=1;whiteSpace=wrap;html=1;" parent="1" vertex="1">
          <mxGeometry x="395" y="432" width="120" height="60" as="geometry" />
        </mxCell>
        <mxCell id="vKuomEE9mSbw3DmOQPJa-29" style="edgeStyle=orthogonalEdgeStyle;rounded=0;orthogonalLoop=1;jettySize=auto;html=1;exitX=1;exitY=0.5;exitDx=0;exitDy=0;entryX=1;entryY=0.56;entryDx=0;entryDy=0;entryPerimeter=0;" parent="1" source="7cYiF0w9IGWrzAaVDBA9-6" target="vKuomEE9mSbw3DmOQPJa-7" edge="1">
          <mxGeometry relative="1" as="geometry">
            <Array as="points">
              <mxPoint x="381" y="187" />
              <mxPoint x="381" y="280" />
            </Array>
          </mxGeometry>
        </mxCell>
        <mxCell id="vKuomEE9mSbw3DmOQPJa-30" style="edgeStyle=orthogonalEdgeStyle;rounded=0;orthogonalLoop=1;jettySize=auto;html=1;exitX=1;exitY=0.5;exitDx=0;exitDy=0;entryX=1.007;entryY=0.587;entryDx=0;entryDy=0;entryPerimeter=0;" parent="1" source="7cYiF0w9IGWrzAaVDBA9-6" target="vKuomEE9mSbw3DmOQPJa-9" edge="1">
          <mxGeometry relative="1" as="geometry">
            <Array as="points">
              <mxPoint x="380" y="187" />
              <mxPoint x="380" y="467" />
            </Array>
          </mxGeometry>
        </mxCell>
        <mxCell id="vKuomEE9mSbw3DmOQPJa-33" style="edgeStyle=orthogonalEdgeStyle;rounded=0;orthogonalLoop=1;jettySize=auto;html=1;exitX=1;exitY=0.5;exitDx=0;exitDy=0;entryX=1;entryY=0.557;entryDx=0;entryDy=0;entryPerimeter=0;" parent="1" source="7cYiF0w9IGWrzAaVDBA9-7" target="vKuomEE9mSbw3DmOQPJa-11" edge="1">
          <mxGeometry relative="1" as="geometry" />
        </mxCell>
        <mxCell id="vKuomEE9mSbw3DmOQPJa-34" style="edgeStyle=orthogonalEdgeStyle;rounded=0;orthogonalLoop=1;jettySize=auto;html=1;exitX=1;exitY=0.5;exitDx=0;exitDy=0;entryX=1;entryY=0.56;entryDx=0;entryDy=0;entryPerimeter=0;" parent="1" source="7cYiF0w9IGWrzAaVDBA9-7" target="vKuomEE9mSbw3DmOQPJa-12" edge="1">
          <mxGeometry relative="1" as="geometry">
            <Array as="points">
              <mxPoint x="533" y="187" />
              <mxPoint x="533" y="466" />
            </Array>
          </mxGeometry>
        </mxCell>
        <mxCell id="KuXuB0iPRyk_4KeLz07_-49" style="edgeStyle=orthogonalEdgeStyle;rounded=0;orthogonalLoop=1;jettySize=auto;html=1;exitX=0.5;exitY=1;exitDx=0;exitDy=0;entryX=0.5;entryY=0;entryDx=0;entryDy=0;" edge="1" parent="1" source="KuXuB0iPRyk_4KeLz07_-5" target="KuXuB0iPRyk_4KeLz07_-9">
          <mxGeometry relative="1" as="geometry">
            <Array as="points">
              <mxPoint x="-165" y="128" />
            </Array>
          </mxGeometry>
        </mxCell>
        <mxCell id="KuXuB0iPRyk_4KeLz07_-51" style="edgeStyle=orthogonalEdgeStyle;rounded=0;orthogonalLoop=1;jettySize=auto;html=1;exitX=0.5;exitY=1;exitDx=0;exitDy=0;entryX=0.5;entryY=0;entryDx=0;entryDy=0;" edge="1" parent="1" source="KuXuB0iPRyk_4KeLz07_-5" target="KuXuB0iPRyk_4KeLz07_-13">
          <mxGeometry relative="1" as="geometry">
            <Array as="points">
              <mxPoint x="-165" y="137" />
              <mxPoint x="-326" y="137" />
            </Array>
          </mxGeometry>
        </mxCell>
        <mxCell id="KuXuB0iPRyk_4KeLz07_-5" value="&lt;div&gt;Начальник департамента по материальному обеспечению и кадрам&lt;/div&gt;" style="rounded=1;whiteSpace=wrap;html=1;" vertex="1" parent="1">
          <mxGeometry x="-239.5" y="68" width="149" height="60" as="geometry" />
        </mxCell>
        <mxCell id="KuXuB0iPRyk_4KeLz07_-6" style="edgeStyle=orthogonalEdgeStyle;rounded=0;orthogonalLoop=1;jettySize=auto;html=1;exitX=0;exitY=0.5;exitDx=0;exitDy=0;entryX=0;entryY=0.5;entryDx=0;entryDy=0;" edge="1" parent="1" source="KuXuB0iPRyk_4KeLz07_-9" target="KuXuB0iPRyk_4KeLz07_-15">
          <mxGeometry relative="1" as="geometry" />
        </mxCell>
        <mxCell id="KuXuB0iPRyk_4KeLz07_-7" style="edgeStyle=orthogonalEdgeStyle;rounded=0;orthogonalLoop=1;jettySize=auto;html=1;exitX=0;exitY=0.5;exitDx=0;exitDy=0;entryX=0;entryY=0.5;entryDx=0;entryDy=0;" edge="1" parent="1" source="KuXuB0iPRyk_4KeLz07_-9" target="KuXuB0iPRyk_4KeLz07_-14">
          <mxGeometry relative="1" as="geometry" />
        </mxCell>
        <mxCell id="KuXuB0iPRyk_4KeLz07_-8" style="edgeStyle=orthogonalEdgeStyle;rounded=0;orthogonalLoop=1;jettySize=auto;html=1;exitX=0;exitY=0.5;exitDx=0;exitDy=0;entryX=0;entryY=0.5;entryDx=0;entryDy=0;" edge="1" parent="1" source="KuXuB0iPRyk_4KeLz07_-9" target="KuXuB0iPRyk_4KeLz07_-16">
          <mxGeometry relative="1" as="geometry" />
        </mxCell>
        <mxCell id="KuXuB0iPRyk_4KeLz07_-9" value="&lt;div&gt;Начальник отдела кадров&lt;/div&gt;" style="rounded=1;whiteSpace=wrap;html=1;" vertex="1" parent="1">
          <mxGeometry x="-225" y="157" width="120" height="60" as="geometry" />
        </mxCell>
        <mxCell id="KuXuB0iPRyk_4KeLz07_-10" style="edgeStyle=orthogonalEdgeStyle;rounded=0;orthogonalLoop=1;jettySize=auto;html=1;exitX=0;exitY=0.5;exitDx=0;exitDy=0;entryX=0;entryY=0.5;entryDx=0;entryDy=0;" edge="1" parent="1" source="KuXuB0iPRyk_4KeLz07_-13" target="KuXuB0iPRyk_4KeLz07_-17">
          <mxGeometry relative="1" as="geometry" />
        </mxCell>
        <mxCell id="KuXuB0iPRyk_4KeLz07_-11" style="edgeStyle=orthogonalEdgeStyle;rounded=0;orthogonalLoop=1;jettySize=auto;html=1;exitX=0;exitY=0.5;exitDx=0;exitDy=0;entryX=0;entryY=0.5;entryDx=0;entryDy=0;" edge="1" parent="1" source="KuXuB0iPRyk_4KeLz07_-13" target="KuXuB0iPRyk_4KeLz07_-18">
          <mxGeometry relative="1" as="geometry" />
        </mxCell>
        <mxCell id="KuXuB0iPRyk_4KeLz07_-13" value="Начальник хозяйственного отдела" style="rounded=1;whiteSpace=wrap;html=1;" vertex="1" parent="1">
          <mxGeometry x="-386" y="157" width="120" height="60" as="geometry" />
        </mxCell>
        <mxCell id="KuXuB0iPRyk_4KeLz07_-14" value="Специалист по кадрам" style="rounded=1;whiteSpace=wrap;html=1;" vertex="1" parent="1">
          <mxGeometry x="-225" y="246" width="120" height="60" as="geometry" />
        </mxCell>
        <mxCell id="KuXuB0iPRyk_4KeLz07_-15" value="Инспектор по кадрам" style="rounded=1;whiteSpace=wrap;html=1;" vertex="1" parent="1">
          <mxGeometry x="-225" y="339" width="120" height="60" as="geometry" />
        </mxCell>
        <mxCell id="KuXuB0iPRyk_4KeLz07_-16" value="HR - аналитик" style="rounded=1;whiteSpace=wrap;html=1;" vertex="1" parent="1">
          <mxGeometry x="-225" y="432" width="120" height="60" as="geometry" />
        </mxCell>
        <mxCell id="KuXuB0iPRyk_4KeLz07_-17" value="Специалист хозяйственного отдела" style="rounded=1;whiteSpace=wrap;html=1;" vertex="1" parent="1">
          <mxGeometry x="-384" y="246" width="120" height="60" as="geometry" />
        </mxCell>
        <mxCell id="KuXuB0iPRyk_4KeLz07_-18" value="Специалист хозяйственного отдела" style="rounded=1;whiteSpace=wrap;html=1;" vertex="1" parent="1">
          <mxGeometry x="-384" y="339" width="120" height="60" as="geometry" />
        </mxCell>
        <mxCell id="KuXuB0iPRyk_4KeLz07_-23" style="edgeStyle=orthogonalEdgeStyle;rounded=0;orthogonalLoop=1;jettySize=auto;html=1;exitX=0.5;exitY=1;exitDx=0;exitDy=0;" edge="1" parent="1" source="KuXuB0iPRyk_4KeLz07_-25" target="KuXuB0iPRyk_4KeLz07_-27">
          <mxGeometry relative="1" as="geometry" />
        </mxCell>
        <mxCell id="KuXuB0iPRyk_4KeLz07_-24" style="edgeStyle=orthogonalEdgeStyle;rounded=0;orthogonalLoop=1;jettySize=auto;html=1;exitX=0.5;exitY=1;exitDx=0;exitDy=0;entryX=0.5;entryY=0;entryDx=0;entryDy=0;" edge="1" parent="1" source="KuXuB0iPRyk_4KeLz07_-25" target="KuXuB0iPRyk_4KeLz07_-29">
          <mxGeometry relative="1" as="geometry">
            <Array as="points">
              <mxPoint x="629" y="137" />
              <mxPoint x="775" y="137" />
            </Array>
          </mxGeometry>
        </mxCell>
        <mxCell id="KuXuB0iPRyk_4KeLz07_-25" value="Начальник экономического департамента&amp;nbsp;" style="rounded=1;whiteSpace=wrap;html=1;" vertex="1" parent="1">
          <mxGeometry x="569" y="64" width="120" height="60" as="geometry" />
        </mxCell>
        <mxCell id="KuXuB0iPRyk_4KeLz07_-26" style="edgeStyle=orthogonalEdgeStyle;rounded=0;orthogonalLoop=1;jettySize=auto;html=1;exitX=1;exitY=0.5;exitDx=0;exitDy=0;entryX=1;entryY=0.5;entryDx=0;entryDy=0;" edge="1" parent="1" source="KuXuB0iPRyk_4KeLz07_-27" target="KuXuB0iPRyk_4KeLz07_-31">
          <mxGeometry relative="1" as="geometry">
            <Array as="points">
              <mxPoint x="702" y="187" />
              <mxPoint x="702" y="369" />
            </Array>
          </mxGeometry>
        </mxCell>
        <mxCell id="KuXuB0iPRyk_4KeLz07_-27" value="&lt;div&gt;Начальник отдела продаж&lt;/div&gt;" style="rounded=1;whiteSpace=wrap;html=1;" vertex="1" parent="1">
          <mxGeometry x="569" y="157" width="120" height="60" as="geometry" />
        </mxCell>
        <mxCell id="KuXuB0iPRyk_4KeLz07_-28" style="edgeStyle=orthogonalEdgeStyle;rounded=0;orthogonalLoop=1;jettySize=auto;html=1;exitX=1;exitY=0.5;exitDx=0;exitDy=0;entryX=1;entryY=0.5;entryDx=0;entryDy=0;" edge="1" parent="1" source="KuXuB0iPRyk_4KeLz07_-29" target="KuXuB0iPRyk_4KeLz07_-33">
          <mxGeometry relative="1" as="geometry" />
        </mxCell>
        <mxCell id="KuXuB0iPRyk_4KeLz07_-29" value="Главный бухгалтер" style="rounded=1;whiteSpace=wrap;html=1;" vertex="1" parent="1">
          <mxGeometry x="715" y="157" width="120" height="60" as="geometry" />
        </mxCell>
        <mxCell id="KuXuB0iPRyk_4KeLz07_-30" value="&lt;div&gt;Менеджер по продажам&lt;/div&gt;" style="rounded=1;whiteSpace=wrap;html=1;" vertex="1" parent="1">
          <mxGeometry x="569" y="246" width="120" height="60" as="geometry" />
        </mxCell>
        <mxCell id="KuXuB0iPRyk_4KeLz07_-31" value="&lt;div&gt;Менеджер по работе с клиентами&lt;/div&gt;" style="rounded=1;whiteSpace=wrap;html=1;" vertex="1" parent="1">
          <mxGeometry x="571" y="339" width="120" height="60" as="geometry" />
        </mxCell>
        <mxCell id="KuXuB0iPRyk_4KeLz07_-32" value="&lt;div&gt;Старший менеджер по продажам&lt;/div&gt;" style="rounded=1;whiteSpace=wrap;html=1;" vertex="1" parent="1">
          <mxGeometry x="571" y="432" width="120" height="60" as="geometry" />
        </mxCell>
        <mxCell id="KuXuB0iPRyk_4KeLz07_-33" value="Кассир" style="rounded=1;whiteSpace=wrap;html=1;" vertex="1" parent="1">
          <mxGeometry x="715" y="244" width="120" height="60" as="geometry" />
        </mxCell>
        <mxCell id="KuXuB0iPRyk_4KeLz07_-34" value="Бухгалтер по учету расчетных операций" style="rounded=1;whiteSpace=wrap;html=1;" vertex="1" parent="1">
          <mxGeometry x="713" y="339" width="120" height="60" as="geometry" />
        </mxCell>
        <mxCell id="KuXuB0iPRyk_4KeLz07_-35" value="Бухгалтер по учету кассовых и банковских операций" style="rounded=1;whiteSpace=wrap;html=1;" vertex="1" parent="1">
          <mxGeometry x="717" y="432" width="120" height="60" as="geometry" />
        </mxCell>
        <mxCell id="KuXuB0iPRyk_4KeLz07_-36" style="edgeStyle=orthogonalEdgeStyle;rounded=0;orthogonalLoop=1;jettySize=auto;html=1;exitX=1;exitY=0.5;exitDx=0;exitDy=0;entryX=1;entryY=0.56;entryDx=0;entryDy=0;entryPerimeter=0;" edge="1" parent="1" source="KuXuB0iPRyk_4KeLz07_-27" target="KuXuB0iPRyk_4KeLz07_-30">
          <mxGeometry relative="1" as="geometry">
            <Array as="points">
              <mxPoint x="703" y="187" />
              <mxPoint x="703" y="280" />
            </Array>
          </mxGeometry>
        </mxCell>
        <mxCell id="KuXuB0iPRyk_4KeLz07_-37" style="edgeStyle=orthogonalEdgeStyle;rounded=0;orthogonalLoop=1;jettySize=auto;html=1;exitX=1;exitY=0.5;exitDx=0;exitDy=0;entryX=1.007;entryY=0.587;entryDx=0;entryDy=0;entryPerimeter=0;" edge="1" parent="1" source="KuXuB0iPRyk_4KeLz07_-27" target="KuXuB0iPRyk_4KeLz07_-32">
          <mxGeometry relative="1" as="geometry">
            <Array as="points">
              <mxPoint x="702" y="187" />
              <mxPoint x="702" y="467" />
            </Array>
          </mxGeometry>
        </mxCell>
        <mxCell id="KuXuB0iPRyk_4KeLz07_-38" style="edgeStyle=orthogonalEdgeStyle;rounded=0;orthogonalLoop=1;jettySize=auto;html=1;exitX=1;exitY=0.5;exitDx=0;exitDy=0;entryX=1;entryY=0.557;entryDx=0;entryDy=0;entryPerimeter=0;" edge="1" parent="1" source="KuXuB0iPRyk_4KeLz07_-29" target="KuXuB0iPRyk_4KeLz07_-34">
          <mxGeometry relative="1" as="geometry" />
        </mxCell>
        <mxCell id="KuXuB0iPRyk_4KeLz07_-39" style="edgeStyle=orthogonalEdgeStyle;rounded=0;orthogonalLoop=1;jettySize=auto;html=1;exitX=1;exitY=0.5;exitDx=0;exitDy=0;entryX=1;entryY=0.56;entryDx=0;entryDy=0;entryPerimeter=0;" edge="1" parent="1" source="KuXuB0iPRyk_4KeLz07_-29" target="KuXuB0iPRyk_4KeLz07_-35">
          <mxGeometry relative="1" as="geometry">
            <Array as="points">
              <mxPoint x="855" y="187" />
              <mxPoint x="855" y="466" />
            </Array>
          </mxGeometry>
        </mxCell>
      </root>
    </mxGraphModel>
  </diagram>
</mxfile>
